<svg width="24" height="24" viewBox="0 0 24 24" fill="none" xmlns="http://www.w3.org/2000/svg">
<rect width="24" height="24" rx="6" fill="#F7931A"/>
<path fill-rule="evenodd" clip-rule="evenodd" d="M17.2923 10.2894C17.5312 8.69242 16.3153 7.83401 14.6526 7.26136L15.192 5.09816L13.875 4.77005L13.3499 6.87629C13.0037 6.78995 12.6482 6.70859 12.2948 6.62794L12.8237 4.5078L11.5075 4.17969L10.9679 6.34218C10.6814 6.27695 10.4 6.21249 10.1269 6.14457L10.1285 6.13776L8.31237 5.6843L7.96204 7.09073C7.96204 7.09073 8.93911 7.31467 8.91852 7.32846C9.45181 7.46155 9.54825 7.81453 9.53224 8.09432L8.91781 10.5587C8.95454 10.568 9.00217 10.5815 9.05473 10.6026L9.01646 10.5931C8.98397 10.585 8.9502 10.5765 8.91553 10.5682L8.05432 14.0205C7.98914 14.1825 7.82372 14.4256 7.45087 14.3333C7.46406 14.3524 6.49369 14.0944 6.49369 14.0944L5.83984 15.6017L7.55364 16.0289C7.74131 16.076 7.92677 16.1243 8.11034 16.1722C8.23863 16.2056 8.36601 16.2388 8.49258 16.2712L7.94761 18.4592L9.26304 18.7873L9.80272 16.6225C10.1621 16.72 10.5108 16.81 10.8522 16.8948L10.3144 19.0494L11.6314 19.3775L12.1763 17.1936C14.422 17.6186 16.1105 17.4473 16.8213 15.4163C17.394 13.7811 16.7928 12.8379 15.6113 12.2229C16.4718 12.0244 17.12 11.4585 17.2928 10.2895L17.2924 10.2892L17.2923 10.2894ZM14.2831 14.5081C13.9097 16.0084 11.5612 15.3881 10.4867 15.1044C10.39 15.0788 10.3037 15.056 10.23 15.0377L10.9532 12.139C11.0429 12.1614 11.1526 12.186 11.2769 12.2139L11.277 12.2139C12.3885 12.4633 14.6657 12.9743 14.2832 14.5081H14.2831ZM11.5001 10.8686C12.3959 11.1076 14.3502 11.6291 14.6906 10.2656H14.6907C15.0383 8.87108 13.139 8.45064 12.2114 8.24529C12.1071 8.22219 12.015 8.20181 11.9398 8.18307L11.2842 10.812C11.3461 10.8275 11.4187 10.8469 11.5001 10.8686Z" fill="white"/>
</svg>
