<svg width="23" height="14" viewBox="0 0 23 14" fill="none" xmlns="http://www.w3.org/2000/svg">
<path d="M11.1745 1.1251C9.39412 2.46585 8.24194 4.59835 8.24194 6.99998C8.24194 9.40163 9.39413 11.5341 11.1745 12.8749C10.0786 13.5866 8.77103 14 7.36694 14C3.50095 14 0.366943 10.866 0.366943 7C0.366943 3.13401 3.50095 0 7.36694 0C8.77102 0 10.0785 0.413392 11.1745 1.1251Z" fill="white"/>
<path d="M11.5669 12.7278C13.3663 11.461 14.5419 9.3678 14.5419 7C14.5419 5.74211 14.2102 4.56171 13.6293 3.54155C13.4585 3.2415 13.2661 2.95531 13.0543 2.68509C13.0252 2.64794 12.9957 2.61109 12.9658 2.57455C12.5614 2.07951 12.0906 1.64085 11.567 1.2722C9.76758 2.53898 8.59194 4.63221 8.59194 7C8.59194 9.3678 9.76756 11.461 11.5669 12.7278Z" fill="white"/>
<path d="M15.5919 0C14.2278 0 12.9549 0.390189 11.8785 1.06505C13.7048 2.40166 14.8919 4.56216 14.8919 6.99998C14.8919 9.43781 13.7048 11.5983 11.8785 12.9349C12.9548 13.6098 14.2278 14 15.5919 14C19.4579 14 22.5919 10.866 22.5919 7C22.5919 3.13401 19.4579 0 15.5919 0Z" fill="white"/>
</svg>